<svg display="none" xmlns="http://www.w3.org/2000/svg">

    <!-- social icons -->
    <!-- email -->
    <symbol id="svg-social-email" viewBox="0 0 42 43">
        <g>
            <path fill-rule="evenodd" clip-rule="evenodd" d="M42 21.5C42 33.0979 32.5979 42.5 21 42.5C9.40201 42.5 0 33.0979 0 21.5C0 9.90201 9.40201 0.5 21 0.5C32.5979 0.5 42 9.90201 42 21.5ZM10.5105 15.2C10.5105 14.045 11.445 13.1 12.6 13.1H29.4C30.555 13.1 31.5 14.045 31.5 15.2V27.8C31.5 28.955 30.555 29.9 29.4 29.9H12.6C11.445 29.9 10.5 28.955 10.5 27.8L10.5105 15.2ZM21 22.55L12.6 17.2999V27.8H29.4V17.2999L21 22.55ZM21 20.45L12.6 15.2H29.4L21 20.45Z"/>
        </g>
    </symbol>

    <!-- github -->
    <defs id="clip0_230_330">
        <clipPath>
            <rect width="42" height="42" fill="white" transform="translate(0 0.5)"/>
        </clipPath>
    </defs>
    <symbol id="svg-social-github" viewBox="0 0 42 43">
        <g clip-path="url(#clip0_230_330)">
            <path d="M21 1.375C9.3975 1.375 0 10.615 0 22.011C0 31.1303 6.0165 38.8635 14.3587 41.59C15.4087 41.7843 15.7937 41.1455 15.7937 40.5978C15.7937 40.1078 15.7763 38.8093 15.7675 37.089C9.926 38.3333 8.694 34.3205 8.694 34.3205C7.7385 31.9388 6.35775 31.3018 6.35775 31.3018C4.4555 30.0225 6.50475 30.0488 6.50475 30.0488C8.6135 30.1923 9.72125 32.175 9.72125 32.175C11.5938 35.3303 14.637 34.4185 15.8375 33.8918C16.0265 32.5565 16.5673 31.6483 17.1675 31.132C12.5038 30.6158 7.602 28.8413 7.602 20.9348C7.602 18.6825 8.41575 16.8415 9.76325 15.3977C9.527 14.8763 8.81825 12.778 9.947 9.936C9.947 9.936 11.7058 9.383 15.722 12.0518C17.402 11.5933 19.187 11.3658 20.972 11.3553C22.757 11.3658 24.542 11.5933 26.222 12.0518C30.212 9.383 31.9707 9.936 31.9707 9.936C33.0995 12.778 32.3908 14.8763 32.1807 15.3977C33.5195 16.8415 34.3332 18.6825 34.3332 20.9348C34.3332 28.8623 29.4245 30.607 24.752 31.1145C25.487 31.734 26.1695 32.9993 26.1695 34.933C26.1695 37.6945 26.1432 39.9135 26.1432 40.5838C26.1432 41.1245 26.5107 41.7703 27.587 41.5638C35.9888 38.8548 42 31.1163 42 22.011C42 10.615 32.5972 1.375 21 1.375Z"/>
        </g>
    </symbol>

    <!-- telegram -->
    <defs id="clip0_230_335">
        <clipPath>
            <rect width="42" height="42" fill="white" transform="translate(0 0.5)"/>
        </clipPath>
    </defs>
    <symbol id="svg-social-telegram" viewBox="0 0 42 43">
        <g clip-path="url(#clip0_230_335)">
            <path d="M21 42.5C32.598 42.5 42 33.098 42 21.5C42 9.90202 32.598 0.5 21 0.5C9.40202 0.5 0 9.90202 0 21.5C0 33.098 9.40202 42.5 21 42.5Z" fill="#039BE5"/>
            <path d="M9.60898 21.0449L29.8565 13.2381C30.7962 12.8986 31.617 13.4674 31.3125 14.8884L31.3142 14.8866L27.8667 31.1284C27.6112 32.2799 26.927 32.5599 25.9697 32.0174L20.7197 28.1481L18.1875 30.5876C17.9075 30.8676 17.6712 31.1039 17.1287 31.1039L17.5015 25.7611L27.2315 16.9709C27.655 16.5981 27.137 16.3881 26.5787 16.7591L14.5545 24.3296L9.37098 22.7126C8.24573 22.3556 8.22123 21.5874 9.60898 21.0449Z" fill="white"/>
        </g>
    </symbol>

    <!-- icons -->
    <!-- telegram -->
    <symbol id="svg-telegram" viewBox="0 0 26 20">
        <g>
            <path d="M1.98774 8.25675L23.5252 0.0998321C24.5248 -0.254896 25.3979 0.339366 25.074 1.8241L25.0758 1.82227L21.4087 18.7925C21.1369 19.9957 20.4091 20.2882 19.3908 19.7214L13.8064 15.6786L11.1128 18.2275C10.8149 18.5201 10.5636 18.7669 9.98658 18.7669L10.3831 13.1845L20.733 4.00001C21.1835 3.61054 20.6325 3.39112 20.0386 3.77876L7.24832 11.6888L1.73458 9.9993C0.537638 9.62629 0.511577 8.82358 1.98774 8.25675Z"/>
        </g>
    </symbol>

    <!-- site -->
    <symbol id="svg-site" viewBox="0 0 16 14">
        <g>
            <path d="M14.75 0.25C15.1642 0.25 15.5 0.58579 15.5 1V13C15.5 13.4142 15.1642 13.75 14.75 13.75H1.25C0.83579 13.75 0.5 13.4142 0.5 13V1C0.5 0.58579 0.83579 0.25 1.25 0.25H14.75ZM14 6.25H2V12.25H14V6.25ZM14 1.75H2V4.75H14V1.75ZM7.25 2.5V4H5.75V2.5H7.25ZM4.25 2.5V4H2.75V2.5H4.25Z"/>
        </g>
    </symbol>

    <!-- link -->
    <symbol id="svg-link" viewBox="0 0 14 14">
        <g>
            <path d="M11.2424 9.12153L10.1818 8.06088L11.2424 7.00023C12.414 5.82866 12.414 3.92916 11.2424 2.75759C10.0708 1.58602 8.1713 1.58602 6.99973 2.75759L5.93908 3.81825L4.87842 2.75759L5.93908 1.69693C7.6964 -0.0604344 10.5457 -0.0604344 12.3031 1.69693C14.0604 3.45429 14.0604 6.30356 12.3031 8.06088L11.2424 9.12153ZM9.12103 11.2429L8.06038 12.3036C6.30305 14.0609 3.45379 14.0609 1.69644 12.3036C-0.0609227 10.5462 -0.0609227 7.69691 1.69644 5.93958L2.7571 4.87891L3.81775 5.93958L2.7571 7.00023C1.58552 8.17181 1.58552 10.0713 2.7571 11.2429C3.92867 12.4144 5.82815 12.4144 6.99973 11.2429L8.06038 10.1822L9.12103 11.2429ZM9.12103 3.81825L10.1818 4.87891L4.87842 10.1822L3.81775 9.12153L9.12103 3.81825Z"/>
        </g>
    </symbol>

    <!-- github -->
    <symbol id="svg-github" viewBox="0 0 18 18">
        <g>
            <path d="M9 0.375C4.0275 0.375 0 4.335 0 9.219C0 13.1272 2.5785 16.4415 6.15375 17.61C6.60375 17.6932 6.76875 17.4195 6.76875 17.1847C6.76875 16.9748 6.76125 16.4183 6.7575 15.681C4.254 16.2143 3.726 14.4945 3.726 14.4945C3.3165 13.4738 2.72475 13.2008 2.72475 13.2008C1.9095 12.6525 2.78775 12.6637 2.78775 12.6637C3.6915 12.7253 4.16625 13.575 4.16625 13.575C4.96875 14.9272 6.273 14.5365 6.7875 14.3107C6.8685 13.7385 7.10025 13.3492 7.3575 13.128C5.35875 12.9067 3.258 12.1462 3.258 8.75775C3.258 7.7925 3.60675 7.0035 4.18425 6.38475C4.083 6.16125 3.77925 5.262 4.263 4.044C4.263 4.044 5.01675 3.807 6.738 4.95075C7.458 4.75425 8.223 4.65675 8.988 4.65225C9.753 4.65675 10.518 4.75425 11.238 4.95075C12.948 3.807 13.7017 4.044 13.7017 4.044C14.1855 5.262 13.8818 6.16125 13.7917 6.38475C14.3655 7.0035 14.7142 7.7925 14.7142 8.75775C14.7142 12.1553 12.6105 12.903 10.608 13.1205C10.923 13.386 11.2155 13.9283 11.2155 14.757C11.2155 15.9405 11.2043 16.8915 11.2043 17.1788C11.2043 17.4105 11.3617 17.6873 11.823 17.5988C15.4237 16.4377 18 13.1213 18 9.219C18 4.335 13.9703 0.375 9 0.375Z"/>
        </g>
    </symbol>
</svg>